<svg width="1201" height="169" viewBox="0 0 1201 169" fill="none" xmlns="http://www.w3.org/2000/svg">
<path d="M425.024 87.4998C425.024 97.3894 423.122 105.657 419.318 112.304C415.555 118.91 410.089 123.895 402.922 127.259C395.755 130.582 387.127 132.243 377.037 132.243H352.173V44.4377H379.74C388.949 44.4377 396.936 46.0793 403.703 49.3625C410.47 52.6057 415.715 57.4304 419.438 63.8367C423.162 70.2029 425.024 78.0906 425.024 87.4998ZM405.685 87.9802C405.685 81.4939 404.724 76.1687 402.802 72.0046C400.92 67.8005 398.118 64.6975 394.394 62.6956C390.71 60.6936 386.146 59.6926 380.701 59.6926H370.791V116.868H378.779C387.868 116.868 394.614 114.446 399.018 109.601C403.463 104.757 405.685 97.5496 405.685 87.9802ZM506.814 132.243L500.448 111.343H468.437L462.07 132.243H442.011L473.001 44.0774H495.763L526.874 132.243H506.814ZM496.003 95.7278L489.637 75.3079C489.237 73.9465 488.696 72.2048 488.016 70.0828C487.375 67.9207 486.714 65.7385 486.034 63.5364C485.393 61.2942 484.873 59.3523 484.472 57.7107C484.072 59.3523 483.511 61.3943 482.791 63.8367C482.11 66.239 481.449 68.5212 480.809 70.6833C480.168 72.8455 479.708 74.387 479.427 75.3079L473.121 95.7278H496.003ZM581.697 132.243H563.079V59.9329H539.236V44.4377H605.541V59.9329H581.697V132.243ZM662.767 132.243H644.149V59.9329H620.306V44.4377H686.61V59.9329H662.767V132.243ZM763.716 132.243L757.35 111.343H725.338L718.972 132.243H698.913L729.903 44.0774H752.665L783.775 132.243H763.716ZM752.905 95.7278L746.539 75.3079C746.139 73.9465 745.598 72.2048 744.918 70.0828C744.277 67.9207 743.616 65.7385 742.936 63.5364C742.295 61.2942 741.774 59.3523 741.374 57.7107C740.974 59.3523 740.413 61.3943 739.692 63.8367C739.012 66.239 738.351 68.5212 737.71 70.6833C737.07 72.8455 736.609 74.387 736.329 75.3079L730.023 95.7278H752.905ZM873.613 44.4377L843.764 132.243H823.465L793.676 44.4377H812.474L828.99 96.6887C829.27 97.5696 829.731 99.2312 830.371 101.674C831.012 104.076 831.653 106.638 832.293 109.361C832.974 112.044 833.434 114.266 833.675 116.028C833.915 114.266 834.335 112.044 834.936 109.361C835.576 106.678 836.197 104.136 836.798 101.734C837.438 99.2913 837.899 97.6096 838.179 96.6887L854.815 44.4377H873.613ZM945.134 132.243H894.564V44.4377H945.134V59.6926H913.182V78.9714H942.911V94.2263H913.182V116.868H945.134V132.243ZM998.937 44.4377C1006.9 44.4377 1013.47 45.3987 1018.64 47.3206C1023.84 49.2424 1027.7 52.1453 1030.23 56.0291C1032.75 59.9128 1034.01 64.8176 1034.01 70.7434C1034.01 74.7473 1033.25 78.2507 1031.73 81.2537C1030.21 84.2566 1028.21 86.7991 1025.72 88.8811C1023.24 90.9631 1020.56 92.6648 1017.67 93.9861L1043.5 132.243H1022.84L1001.88 98.5505H991.97V132.243H973.352V44.4377H998.937ZM997.615 59.6926H991.97V83.4158H997.976C1004.14 83.4158 1008.55 82.3948 1011.19 80.3528C1013.87 78.2708 1015.21 75.2278 1015.21 71.2239C1015.21 67.0598 1013.77 64.0969 1010.89 62.3352C1008.05 60.5735 1003.62 59.6926 997.615 59.6926ZM1116.22 107.86C1116.22 113.065 1114.96 117.589 1112.44 121.433C1109.92 125.277 1106.23 128.24 1101.39 130.322C1096.58 132.404 1090.74 133.445 1083.85 133.445C1080.81 133.445 1077.82 133.244 1074.9 132.844C1072.02 132.444 1069.24 131.863 1066.55 131.102C1063.91 130.302 1061.39 129.321 1058.99 128.159V110.863C1063.15 112.704 1067.47 114.366 1071.96 115.847C1076.44 117.329 1080.89 118.07 1085.29 118.07C1088.33 118.07 1090.78 117.669 1092.62 116.868C1094.5 116.068 1095.86 114.967 1096.7 113.565C1097.54 112.164 1097.96 110.562 1097.96 108.76C1097.96 106.558 1097.22 104.677 1095.74 103.115C1094.26 101.553 1092.22 100.092 1089.62 98.7307C1087.05 97.3694 1084.15 95.908 1080.91 94.3464C1078.86 93.3855 1076.64 92.2244 1074.24 90.863C1071.84 89.4617 1069.56 87.76 1067.39 85.7581C1065.23 83.7561 1063.45 81.3337 1062.05 78.491C1060.69 75.6082 1060.01 72.1648 1060.01 68.1609C1060.01 62.9158 1061.21 58.4314 1063.61 54.7078C1066.01 50.9841 1069.44 48.1414 1073.88 46.1794C1078.36 44.1775 1083.65 43.1765 1089.74 43.1765C1094.3 43.1765 1098.64 43.717 1102.77 44.7981C1106.93 45.8391 1111.28 47.3606 1115.8 49.3625L1109.8 63.8367C1105.75 62.1951 1102.13 60.9338 1098.92 60.053C1095.72 59.1321 1092.46 58.6716 1089.13 58.6716C1086.81 58.6716 1084.83 59.052 1083.19 59.8127C1081.55 60.5334 1080.31 61.5745 1079.47 62.9358C1078.62 64.2571 1078.2 65.7986 1078.2 67.5603C1078.2 69.6423 1078.8 71.4041 1080.01 72.8455C1081.25 74.2468 1083.09 75.6082 1085.53 76.9294C1088.01 78.2507 1091.1 79.7922 1094.78 81.554C1099.26 83.676 1103.09 85.8982 1106.25 88.2205C1109.45 90.5027 1111.92 93.2053 1113.64 96.3284C1115.36 99.4114 1116.22 103.255 1116.22 107.86ZM1192.55 132.243H1141.98V44.4377H1192.55V59.6926H1160.6V78.9714H1190.32V94.2263H1160.6V116.868H1192.55V132.243Z" fill="white"/>
<path d="M157.135 82.6536L138.635 111.064L56.7074 12.6189H69.2608L118.483 40.3685L157.135 82.6536Z" fill="url(#paint0_linear_2_33)"/>
<path d="M169.276 156.102H129.851L215.691 41.1839L271.053 12.3844L169.276 156.102Z" fill="url(#paint1_linear_2_33)"/>
<path d="M122.485 125.558L102.713 155.558H0.440918L71.3494 59.6498L86.5766 83.7405L55.4405 125.558H122.485Z" fill="url(#paint2_linear_2_33)"/>
<path d="M217.396 40.3799H118.487L69.2355 12.6264L270.852 11.9545L217.396 40.3799Z" fill="url(#paint3_linear_2_33)"/>
<defs>
<linearGradient id="paint0_linear_2_33" x1="61.002" y1="12.6189" x2="147.885" y2="97.1892" gradientUnits="userSpaceOnUse">
<stop stop-color="#3CC3FB"/>
<stop offset="1" stop-color="#2478D2"/>
</linearGradient>
<linearGradient id="paint1_linear_2_33" x1="271.053" y1="12.3844" x2="152.395" y2="156.102" gradientUnits="userSpaceOnUse">
<stop stop-color="#338FE5"/>
<stop offset="1" stop-color="#1F60D8"/>
</linearGradient>
<linearGradient id="paint2_linear_2_33" x1="66.7026" y1="59.6498" x2="103.072" y2="149.846" gradientUnits="userSpaceOnUse">
<stop stop-color="#4DD1EF"/>
<stop offset="1" stop-color="#2575F0"/>
</linearGradient>
<linearGradient id="paint3_linear_2_33" x1="92.4894" y1="26.7194" x2="248.976" y2="26.7194" gradientUnits="userSpaceOnUse">
<stop stop-color="#3EEAFF"/>
<stop offset="1" stop-color="#3EDDFF"/>
</linearGradient>
</defs>
</svg>
