<svg width="1201" height="169" viewBox="0 0 1201 169" fill="none" xmlns="http://www.w3.org/2000/svg">
<path d="M425.024 87.7303C425.024 97.62 423.122 105.888 419.318 112.535C415.555 119.141 410.089 124.126 402.922 127.489C395.755 130.812 387.127 132.474 377.037 132.474H352.173V44.6683H379.74C388.949 44.6683 396.936 46.3099 403.703 49.5931C410.47 52.8363 415.715 57.661 419.438 64.0673C423.162 70.4335 425.024 78.3212 425.024 87.7303ZM405.685 88.2108C405.685 81.7245 404.724 76.3993 402.802 72.2352C400.92 68.0311 398.118 64.9281 394.394 62.9261C390.71 60.9242 386.146 59.9232 380.701 59.9232H370.791V117.099H378.779C387.868 117.099 394.614 114.677 399.018 109.832C403.463 104.987 405.685 97.7802 405.685 88.2108ZM506.814 132.474L500.448 111.574H468.437L462.07 132.474H442.011L473.001 44.308H495.763L526.874 132.474H506.814ZM496.003 95.9584L489.637 75.5385C489.237 74.1771 488.696 72.4354 488.016 70.3134C487.375 68.1512 486.714 65.9691 486.034 63.767C485.393 61.5248 484.873 59.5829 484.472 57.9413C484.072 59.5829 483.511 61.6249 482.791 64.0673C482.11 66.4696 481.449 68.7518 480.809 70.9139C480.168 73.076 479.708 74.6176 479.427 75.5385L473.121 95.9584H496.003ZM581.697 132.474H563.079V60.1635H539.236V44.6683H605.541V60.1635H581.697V132.474ZM662.767 132.474H644.149V60.1635H620.306V44.6683H686.61V60.1635H662.767V132.474ZM763.716 132.474L757.35 111.574H725.338L718.972 132.474H698.913L729.903 44.308H752.665L783.775 132.474H763.716ZM752.905 95.9584L746.539 75.5385C746.139 74.1771 745.598 72.4354 744.918 70.3134C744.277 68.1512 743.616 65.9691 742.936 63.767C742.295 61.5248 741.774 59.5829 741.374 57.9413C740.974 59.5829 740.413 61.6249 739.692 64.0673C739.012 66.4696 738.351 68.7518 737.71 70.9139C737.07 73.076 736.609 74.6176 736.329 75.5385L730.023 95.9584H752.905ZM873.613 44.6683L843.764 132.474H823.465L793.676 44.6683H812.474L828.99 96.9193C829.27 97.8002 829.731 99.4618 830.371 101.904C831.012 104.307 831.653 106.869 832.293 109.592C832.974 112.274 833.434 114.496 833.675 116.258C833.915 114.496 834.335 112.274 834.936 109.592C835.576 106.909 836.197 104.367 836.798 101.964C837.438 99.5219 837.899 97.8402 838.179 96.9193L854.815 44.6683H873.613ZM945.134 132.474H894.564V44.6683H945.134V59.9232H913.182V79.202H942.911V94.4569H913.182V117.099H945.134V132.474ZM998.937 44.6683C1006.9 44.6683 1013.47 45.6293 1018.64 47.5511C1023.84 49.473 1027.7 52.3759 1030.23 56.2596C1032.75 60.1434 1034.01 65.0482 1034.01 70.974C1034.01 74.9779 1033.25 78.4813 1031.73 81.4843C1030.21 84.4872 1028.21 87.0297 1025.72 89.1117C1023.24 91.1937 1020.56 92.8954 1017.67 94.2167L1043.5 132.474H1022.84L1001.88 98.7811H991.97V132.474H973.352V44.6683H998.937ZM997.615 59.9232H991.97V83.6464H997.976C1004.14 83.6464 1008.55 82.6254 1011.19 80.5834C1013.87 78.5013 1015.21 75.4584 1015.21 71.4545C1015.21 67.2904 1013.77 64.3275 1010.89 62.5658C1008.05 60.8041 1003.62 59.9232 997.615 59.9232ZM1116.22 108.09C1116.22 113.295 1114.96 117.82 1112.44 121.663C1109.92 125.507 1106.23 128.47 1101.39 130.552C1096.58 132.634 1090.74 133.675 1083.85 133.675C1080.81 133.675 1077.82 133.475 1074.9 133.075C1072.02 132.674 1069.24 132.094 1066.55 131.333C1063.91 130.532 1061.39 129.551 1058.99 128.39V111.093C1063.15 112.935 1067.47 114.597 1071.96 116.078C1076.44 117.559 1080.89 118.3 1085.29 118.3C1088.33 118.3 1090.78 117.9 1092.62 117.099C1094.5 116.298 1095.86 115.197 1096.7 113.796C1097.54 112.394 1097.96 110.793 1097.96 108.991C1097.96 106.789 1097.22 104.907 1095.74 103.346C1094.26 101.784 1092.22 100.323 1089.62 98.9613C1087.05 97.6 1084.15 96.1385 1080.91 94.577C1078.86 93.6161 1076.64 92.455 1074.24 91.0936C1071.84 89.6923 1069.56 87.9906 1067.39 85.9886C1065.23 83.9867 1063.45 81.5643 1062.05 78.7216C1060.69 75.8387 1060.01 72.3954 1060.01 68.3915C1060.01 63.1464 1061.21 58.662 1063.61 54.9384C1066.01 51.2147 1069.44 48.3719 1073.88 46.41C1078.36 44.4081 1083.65 43.4071 1089.74 43.4071C1094.3 43.4071 1098.64 43.9476 1102.77 45.0287C1106.93 46.0697 1111.28 47.5912 1115.8 49.5931L1109.8 64.0673C1105.75 62.4257 1102.13 61.1644 1098.92 60.2836C1095.72 59.3627 1092.46 58.9022 1089.13 58.9022C1086.81 58.9022 1084.83 59.2826 1083.19 60.0433C1081.55 60.764 1080.31 61.8051 1079.47 63.1664C1078.62 64.4877 1078.2 66.0292 1078.2 67.7909C1078.2 69.8729 1078.8 71.6346 1080.01 73.076C1081.25 74.4774 1083.09 75.8387 1085.53 77.16C1088.01 78.4813 1091.1 80.0228 1094.78 81.7845C1099.26 83.9066 1103.09 86.1288 1106.25 88.451C1109.45 90.7333 1111.92 93.4359 1113.64 96.559C1115.36 99.642 1116.22 103.486 1116.22 108.09ZM1192.55 132.474H1141.98V44.6683H1192.55V59.9232H1160.6V79.202H1190.32V94.4569H1160.6V117.099H1192.55V132.474Z" fill="black"/>
<path d="M157.135 82.8842L138.635 111.295L56.7074 12.8495H69.2608L118.483 40.5991L157.135 82.8842Z" fill="url(#paint0_linear_2_40)"/>
<path d="M169.276 156.333H129.851L215.691 41.4145L271.053 12.615L169.276 156.333Z" fill="url(#paint1_linear_2_40)"/>
<path d="M122.485 125.789L102.713 155.789H0.440918L71.3494 59.8804L86.5766 83.9711L55.4405 125.789H122.485Z" fill="url(#paint2_linear_2_40)"/>
<path d="M217.396 40.6105H118.487L69.2355 12.857L270.852 12.1851L217.396 40.6105Z" fill="url(#paint3_linear_2_40)"/>
<defs>
<linearGradient id="paint0_linear_2_40" x1="61.002" y1="12.8495" x2="147.885" y2="97.4198" gradientUnits="userSpaceOnUse">
<stop stop-color="#3CC3FB"/>
<stop offset="1" stop-color="#2478D2"/>
</linearGradient>
<linearGradient id="paint1_linear_2_40" x1="271.053" y1="12.615" x2="152.395" y2="156.333" gradientUnits="userSpaceOnUse">
<stop stop-color="#338FE5"/>
<stop offset="1" stop-color="#1F60D8"/>
</linearGradient>
<linearGradient id="paint2_linear_2_40" x1="66.7026" y1="59.8804" x2="103.072" y2="150.076" gradientUnits="userSpaceOnUse">
<stop stop-color="#4DD1EF"/>
<stop offset="1" stop-color="#2575F0"/>
</linearGradient>
<linearGradient id="paint3_linear_2_40" x1="92.4894" y1="26.95" x2="248.976" y2="26.95" gradientUnits="userSpaceOnUse">
<stop stop-color="#3EEAFF"/>
<stop offset="1" stop-color="#3EDDFF"/>
</linearGradient>
</defs>
</svg>
